<?xml version="1.0" encoding="UTF-8" ?>
<!DOCTYPE svg PUBLIC "-//W3C//DTD SVG 1.1//EN" "http://www.w3.org/Graphics/SVG/1.1/DTD/svg11.dtd">
<svg width="526pt" height="107pt" viewBox="0 0 1415 288" version="1.1" xmlns="http://www.w3.org/2000/svg">
<g id="#ec2c2eff">
<path fill="#ec2c2e" opacity="1.00" d=" M 155.47 0.00 L 295.51 0.00 C 304.02 0.66 312.69 3.15 319.33 8.71 C 325.47 13.87 328.39 22.15 327.63 30.05 C 326.57 41.82 320.53 52.38 314.08 62.00 C 302.83 78.28 286.69 91.23 268.05 98.00 C 263.14 100.27 257.61 100.66 252.72 102.90 C 260.30 104.34 268.44 106.21 273.97 112.02 C 279.36 117.46 281.03 125.59 280.05 133.00 C 278.17 144.91 272.47 155.83 265.72 165.68 C 254.19 182.81 236.92 195.85 217.37 202.47 C 188.97 212.18 158.54 210.72 128.97 210.81 C 99.87 210.81 70.76 210.82 41.66 210.80 C 79.60 140.54 117.50 70.25 155.47 0.00 M 199.76 41.47 C 192.38 55.40 184.79 69.21 177.35 83.10 C 186.24 83.11 195.13 83.15 204.02 83.01 C 210.02 83.06 216.06 82.63 221.90 81.18 C 233.03 78.70 242.58 71.08 248.24 61.28 C 250.90 57.08 254.41 50.89 250.49 46.40 C 246.30 42.68 240.35 42.13 235.00 41.70 C 223.26 41.27 211.50 41.36 199.76 41.47 M 130.80 169.35 C 144.87 169.42 158.96 169.57 173.02 168.97 C 180.61 168.42 188.29 166.79 194.90 162.89 C 203.90 157.53 210.15 148.40 213.45 138.60 C 214.20 135.72 214.33 132.21 212.25 129.84 C 208.63 125.94 203.00 125.28 197.99 124.87 C 183.66 124.30 169.31 124.58 154.97 124.54 C 146.92 139.49 138.84 154.41 130.80 169.35 Z" />
<path fill="#ec2c2e" opacity="1.00" d=" M 897.66 0.00 L 980.03 0.00 C 983.76 45.86 987.26 91.74 991.13 137.58 C 997.09 127.86 1002.06 117.54 1007.64 107.58 C 1026.98 71.72 1046.37 35.88 1065.69 0.00 L 1126.85 0.00 C 1088.85 70.24 1051.00 140.57 1013.00 210.82 C 985.85 210.75 958.70 210.92 931.57 210.74 C 929.39 186.83 926.86 162.95 924.55 139.05 C 922.34 117.94 920.59 96.77 918.10 75.70 C 913.19 84.04 908.85 92.71 904.17 101.18 C 884.40 137.72 864.75 174.33 844.92 210.83 C 824.58 210.78 804.23 210.82 783.89 210.81 C 821.79 140.53 859.74 70.27 897.66 0.00 Z" />
<path fill="#ec2c2e" opacity="1.00" d=" M 1329.70 24.66 C 1353.01 20.44 1376.32 16.20 1399.64 12.03 C 1392.25 25.72 1384.86 39.41 1377.47 53.10 C 1389.98 53.13 1402.49 53.06 1415.00 53.14 L 1415.00 53.23 C 1407.54 66.91 1400.05 80.58 1392.83 94.39 C 1380.32 94.59 1367.80 94.53 1355.29 94.42 C 1345.54 112.03 1336.09 129.83 1326.53 147.54 C 1324.45 152.49 1321.09 157.33 1321.51 162.92 C 1321.74 166.67 1325.56 168.67 1328.91 169.01 C 1339.19 170.40 1349.30 167.36 1359.20 164.99 C 1348.96 179.89 1338.53 194.67 1328.24 209.54 C 1313.69 212.63 1298.86 214.48 1283.98 214.56 C 1274.07 214.47 1263.88 214.17 1254.55 210.49 C 1248.75 208.49 1243.83 203.38 1243.23 197.12 C 1242.34 188.99 1245.66 181.17 1249.18 174.04 C 1263.32 147.45 1277.77 121.03 1292.01 94.50 C 1283.83 94.41 1275.65 94.68 1267.49 94.37 C 1274.84 80.68 1282.43 67.10 1289.54 53.29 C 1297.75 52.90 1305.98 53.13 1314.20 53.18 C 1319.55 43.78 1324.52 34.16 1329.70 24.66 Z" />
<path fill="#ec2c2e" opacity="1.00" d=" M 420.96 49.89 C 437.80 49.21 455.10 48.39 471.42 53.41 C 478.87 55.80 486.65 60.19 489.45 67.96 C 492.31 75.92 489.20 84.43 485.59 91.60 C 464.27 131.33 442.66 170.91 421.43 210.69 C 400.35 210.90 379.24 210.87 358.16 210.71 C 370.85 187.28 383.62 163.90 396.06 140.35 C 379.08 146.56 360.61 148.69 344.62 157.52 C 340.88 160.10 336.82 162.53 334.24 166.39 C 332.45 169.07 330.66 172.30 331.46 175.63 C 332.23 178.34 335.03 179.68 337.56 180.30 C 346.32 181.98 355.25 180.37 363.78 178.25 C 354.45 189.75 345.20 201.33 335.79 212.76 C 324.23 213.53 312.63 215.19 301.04 214.13 C 291.98 213.80 282.64 212.02 274.89 207.10 C 269.87 203.94 266.02 198.81 264.93 192.91 C 263.44 184.84 265.99 176.67 269.42 169.42 C 274.20 159.53 280.97 150.44 289.70 143.70 C 301.90 133.43 316.93 127.19 332.11 122.80 C 354.54 116.22 378.04 114.23 400.45 107.59 C 408.24 104.83 417.43 100.77 419.73 92.00 C 421.16 87.13 416.07 84.03 411.95 83.50 C 397.16 81.53 382.36 84.71 367.84 87.22 C 354.41 90.13 341.12 93.64 327.97 97.60 C 328.29 96.73 328.71 95.91 329.21 95.14 C 337.21 83.15 345.09 71.09 353.06 59.08 C 375.51 54.82 398.13 51.18 420.96 49.89 Z" />
<path fill="#ec2c2e" opacity="1.00" d=" M 622.88 51.26 C 634.43 49.08 646.30 48.95 657.98 50.15 C 666.11 51.51 674.75 53.13 681.09 58.86 C 686.83 63.68 689.06 71.59 688.19 78.87 C 686.85 91.95 679.73 103.35 673.71 114.71 C 656.41 146.74 639.13 178.78 621.83 210.81 C 600.84 210.82 579.84 210.79 558.85 210.83 C 573.60 183.00 588.74 155.38 603.64 127.62 C 606.78 121.57 609.92 114.82 608.71 107.82 C 607.75 102.82 602.91 99.79 598.15 99.15 C 585.66 97.22 573.21 102.09 563.00 108.98 C 546.87 120.27 535.24 136.67 525.64 153.61 C 515.15 172.56 504.99 191.71 494.69 210.78 C 473.64 210.85 452.58 210.80 431.52 210.80 C 460.04 158.25 488.18 105.48 516.86 53.02 C 536.73 53.21 556.60 53.05 576.47 53.11 C 572.33 60.76 568.14 68.39 564.09 76.09 C 565.89 75.91 567.28 74.70 568.77 73.79 C 585.25 63.15 603.46 54.70 622.88 51.26 Z" />
<path fill="#ec2c2e" opacity="1.00" d=" M 770.07 51.99 C 784.82 48.77 800.01 49.15 815.00 49.80 C 827.40 50.64 840.01 51.78 851.87 55.58 C 845.30 71.30 838.87 87.09 832.57 102.92 C 818.86 98.32 804.66 93.73 789.99 94.73 C 777.92 95.23 765.98 99.18 756.10 106.15 C 743.84 114.63 734.84 127.24 729.39 141.01 C 727.54 146.66 725.91 153.02 728.20 158.79 C 730.79 164.98 737.75 167.47 743.87 168.60 C 762.91 171.42 781.49 165.09 799.84 160.99 C 788.84 176.94 777.94 192.96 766.96 208.92 C 746.62 213.02 725.81 215.45 705.04 214.21 C 692.97 213.23 680.42 210.79 670.45 203.50 C 662.92 198.06 658.18 189.24 657.41 180.02 C 656.12 165.96 660.98 152.27 666.63 139.64 C 679.13 113.60 697.23 89.75 721.08 73.14 C 735.75 62.88 752.48 55.44 770.07 51.99 Z" />
<path fill="#ec2c2e" opacity="1.00" d=" M 1115.47 76.43 C 1138.33 60.19 1165.95 50.82 1193.96 49.57 C 1208.05 48.93 1222.48 49.63 1235.92 54.22 C 1244.51 57.26 1252.83 62.50 1257.32 70.67 C 1262.22 79.27 1262.03 89.75 1259.75 99.12 C 1256.02 114.33 1247.28 127.54 1240.15 141.28 C 1201.60 141.31 1163.06 141.18 1124.52 141.35 C 1121.70 147.09 1119.11 153.63 1120.85 160.09 C 1122.43 166.26 1128.31 170.07 1134.01 172.00 C 1144.62 175.84 1156.08 174.61 1167.09 173.82 C 1183.31 171.82 1199.26 168.21 1215.11 164.30 C 1205.02 179.10 1194.99 193.94 1184.79 208.66 C 1158.86 213.27 1132.44 215.42 1106.11 214.17 C 1092.15 213.02 1077.44 210.70 1065.93 202.13 C 1058.91 196.97 1054.29 188.80 1053.38 180.15 C 1051.92 167.06 1056.22 154.18 1061.43 142.36 C 1073.32 116.21 1091.87 92.93 1115.47 76.43 M 1169.48 87.71 C 1157.38 92.58 1147.51 101.83 1140.14 112.44 C 1158.28 112.61 1176.43 112.46 1194.58 112.51 C 1197.39 106.72 1200.59 100.45 1199.57 93.80 C 1198.99 89.45 1195.06 86.37 1190.95 85.53 C 1183.80 83.89 1176.24 85.07 1169.48 87.71 Z" />
<path fill="#ec2c2e" opacity="1.00" d=" M 32.92 227.06 C 461.16 227.09 889.40 227.07 1317.64 227.07 C 1314.17 233.49 1310.74 239.93 1307.22 246.33 C 878.98 246.29 450.74 246.32 22.49 246.31 C 25.99 239.90 29.40 233.45 32.92 227.06 Z" />
<path fill="#ec2c2e" opacity="1.00" d=" M 10.30 268.82 C 49.18 268.68 88.06 268.80 126.94 268.76 C 516.34 268.76 905.75 268.76 1295.16 268.77 C 1291.67 275.17 1288.27 281.63 1284.73 288.00 L 0.00 288.00 L 0.00 288.00 C 3.41 281.60 6.95 275.26 10.30 268.82 Z" />
</g>
</svg>
