<?xml version="1.0" encoding="UTF-8" ?>
<!DOCTYPE svg PUBLIC "-//W3C//DTD SVG 1.1//EN" "http://www.w3.org/Graphics/SVG/1.1/DTD/svg11.dtd">
<svg width="530pt" height="106pt" viewBox="0 0 1280 256" version="1.1" xmlns="http://www.w3.org/2000/svg">
<g id="#ffffffff">
</g>
<g id="#023184ff">
<path fill="#023184" opacity="1.00" d=" M 128.39 19.43 C 132.86 17.33 137.07 21.09 140.74 23.20 C 172.89 44.87 205.67 65.59 237.81 87.26 C 246.46 93.19 245.85 107.50 236.91 112.88 C 203.18 135.16 169.21 157.09 135.54 179.46 C 133.17 181.05 129.85 181.14 127.43 179.62 C 94.97 158.35 62.46 137.15 29.97 115.93 C 24.88 112.71 18.78 108.70 18.69 101.96 C 17.35 94.87 22.17 88.35 28.00 84.90 C 61.56 63.22 94.53 40.63 128.39 19.43 M 165.70 62.62 C 171.06 71.28 176.77 79.72 181.85 88.56 C 187.87 88.95 193.90 88.91 199.92 88.61 C 188.36 80.15 176.40 72.18 165.70 62.62 M 62.48 88.62 C 68.38 88.81 74.30 89.11 80.19 88.59 C 85.76 80.35 90.85 71.80 96.58 63.67 C 85.26 72.05 74.07 80.62 62.48 88.62 M 104.17 88.78 C 109.60 88.81 115.03 88.80 120.46 88.79 C 120.43 80.56 120.42 72.33 120.39 64.10 C 115.49 72.65 109.80 80.70 104.17 88.78 M 142.38 64.87 C 142.25 72.84 142.26 80.82 142.38 88.79 C 147.59 88.80 152.80 88.80 158.01 88.79 C 152.82 80.80 147.59 72.84 142.38 64.87 M 62.51 110.52 C 74.00 119.01 85.42 127.59 96.91 136.08 C 90.88 127.86 85.56 119.15 80.11 110.55 C 74.24 110.51 68.37 110.55 62.51 110.52 M 104.13 110.53 C 109.71 118.81 115.36 127.05 120.53 135.60 C 120.43 127.25 120.45 118.89 120.52 110.54 C 115.05 110.53 109.59 110.54 104.13 110.53 M 142.44 110.47 C 142.25 118.60 142.27 126.73 142.32 134.86 C 147.53 126.68 152.88 118.59 158.28 110.54 C 153.00 110.57 147.72 110.43 142.44 110.47 M 183.12 110.51 C 176.83 118.94 171.45 127.98 165.89 136.90 C 176.63 127.11 188.81 119.12 200.48 110.51 C 194.69 110.54 188.91 110.55 183.12 110.51 Z" />
<path fill="#023184" opacity="1.00" d=" M 290.90 93.48 C 300.90 93.48 310.90 93.37 320.89 93.39 C 333.70 129.04 346.65 164.67 357.75 200.90 C 361.03 185.83 366.83 171.47 371.99 156.98 C 379.69 135.75 387.55 114.58 395.41 93.41 C 405.27 93.47 415.14 93.48 425.01 93.32 C 427.87 131.88 429.93 170.48 432.47 209.05 C 433.38 220.42 433.90 231.80 434.27 243.20 C 425.68 243.21 417.09 243.19 408.50 243.20 C 407.53 219.76 406.12 196.33 404.87 172.90 C 404.35 160.95 404.47 148.92 402.62 137.07 C 399.86 148.86 395.62 160.23 391.53 171.61 C 382.92 195.23 374.28 218.84 365.70 242.47 C 359.32 242.35 352.93 242.22 346.55 242.62 C 336.64 215.73 327.74 188.47 318.45 161.35 C 315.94 154.26 314.13 146.95 312.40 139.64 C 309.83 174.11 308.32 208.65 305.98 243.13 C 297.53 243.15 289.09 243.14 280.65 242.98 C 284.26 193.16 287.68 143.33 290.90 93.48 Z" />
<path fill="#023184" opacity="1.00" d=" M 824.26 93.40 C 832.85 93.40 841.45 93.40 850.05 93.40 C 850.05 110.89 850.11 128.38 850.06 145.87 C 866.07 130.17 894.39 129.95 910.59 145.48 C 922.57 157.19 927.22 174.63 926.48 191.01 C 926.29 208.08 919.83 226.20 905.54 236.44 C 888.55 249.50 861.86 248.68 846.86 232.87 C 846.76 236.31 846.66 239.76 846.55 243.21 C 838.70 243.22 830.86 243.05 823.02 243.06 C 824.37 232.45 824.32 221.74 824.32 211.06 C 824.39 171.84 824.31 132.62 824.26 93.40 M 868.40 156.63 C 860.03 159.37 853.36 166.52 851.02 174.98 C 849.18 183.20 850.17 191.72 850.04 200.07 C 849.84 212.65 861.50 223.81 874.01 223.40 C 883.81 224.27 892.83 217.53 896.81 208.90 C 902.98 194.08 902.37 175.10 891.48 162.61 C 885.59 156.71 876.42 154.03 868.40 156.63 Z" />
<path fill="#023184" opacity="1.00" d=" M 1159.56 93.55 C 1168.17 93.51 1176.77 93.33 1185.39 93.41 C 1185.27 120.49 1184.80 147.59 1185.76 174.66 C 1196.74 161.58 1207.57 148.36 1219.28 135.91 C 1229.68 136.53 1240.10 135.93 1250.51 136.06 C 1236.49 151.21 1222.39 166.28 1208.13 181.20 C 1223.64 201.79 1239.15 222.38 1254.54 243.06 C 1243.95 243.11 1233.37 243.03 1222.79 243.02 C 1213.32 228.93 1203.02 215.42 1193.47 201.39 C 1192.64 200.00 1191.34 199.04 1189.98 198.24 C 1187.85 200.74 1185.00 203.33 1185.27 206.92 C 1185.21 218.97 1185.22 231.01 1185.28 243.06 C 1176.75 243.07 1168.22 243.07 1159.69 243.06 C 1159.71 193.22 1159.87 143.38 1159.56 93.55 Z" />
<path fill="#023184" opacity="1.00" d=" M 568.62 119.23 C 576.98 116.30 585.41 113.57 593.96 111.25 C 593.90 119.47 593.90 127.69 593.87 135.91 C 601.56 136.24 609.26 135.90 616.96 136.21 C 618.32 136.03 619.29 137.05 620.31 137.78 C 620.30 144.32 620.41 150.85 620.36 157.39 C 611.52 157.47 602.68 157.48 593.84 157.46 C 593.87 171.30 593.88 185.14 593.90 198.98 C 594.03 204.95 593.52 211.06 595.21 216.87 C 595.93 219.10 597.24 221.57 599.67 222.26 C 605.62 224.17 611.89 222.41 617.62 220.58 C 618.68 227.73 618.87 234.96 619.14 242.17 C 609.25 245.26 598.39 247.10 588.28 243.94 C 581.97 241.95 576.20 237.74 573.23 231.72 C 569.91 224.99 568.94 217.39 568.73 209.97 C 568.71 192.47 568.74 174.96 568.72 157.46 C 563.60 157.47 558.47 157.46 553.36 157.47 C 553.42 150.34 553.50 143.21 553.46 136.08 C 558.54 136.05 563.61 136.08 568.69 136.06 C 568.67 130.45 568.60 124.84 568.62 119.23 Z" />
<path fill="#023184" opacity="1.00" d=" M 18.91 130.95 C 19.25 126.04 25.51 122.61 29.77 125.21 C 39.32 130.36 47.89 137.06 57.02 142.89 C 81.76 159.06 105.89 176.15 131.06 191.65 C 135.78 189.37 140.23 186.58 144.58 183.67 C 172.56 164.95 200.51 146.18 228.55 127.56 C 231.88 125.29 235.87 123.92 239.93 124.54 C 241.29 126.44 242.69 128.30 244.11 130.15 C 244.11 162.76 243.92 195.37 244.10 227.97 C 243.94 235.82 237.11 243.37 229.01 243.11 C 164.03 243.14 99.04 243.17 34.06 243.10 C 28.38 243.65 23.53 239.70 20.63 235.20 C 18.65 232.16 19.02 228.41 18.98 224.96 C 18.95 193.63 18.89 162.29 18.91 130.95 M 148.31 209.32 C 144.35 211.60 140.56 214.52 135.93 215.26 C 129.36 216.40 122.56 214.50 116.97 211.00 C 95.23 197.42 73.48 183.84 51.67 170.37 C 49.57 169.10 47.35 167.43 44.73 168.13 C 44.38 184.59 44.66 201.06 44.51 217.52 C 47.60 218.33 50.77 218.90 53.97 218.81 C 108.49 218.74 163.00 218.95 217.51 218.53 C 218.98 209.42 218.47 200.16 218.53 190.97 C 218.49 183.01 219.04 174.96 217.44 167.10 C 193.83 180.23 171.50 195.49 148.31 209.32 Z" />
<path fill="#023184" opacity="1.00" d=" M 461.68 151.91 C 476.93 132.02 508.87 127.38 528.55 143.29 C 543.49 156.37 546.93 178.10 543.96 196.87 C 520.87 196.87 497.78 196.86 474.70 196.87 C 475.77 207.14 481.71 217.70 491.80 221.36 C 506.06 225.63 521.50 223.05 535.05 217.51 C 536.67 224.37 538.83 231.13 539.64 238.16 C 522.40 244.77 503.18 247.50 485.06 243.11 C 469.18 239.03 456.17 226.07 451.92 210.25 C 446.81 190.68 449.23 168.32 461.68 151.91 M 480.25 164.28 C 478.06 167.96 476.60 172.02 475.00 175.99 C 490.00 176.09 504.99 176.08 519.99 175.99 C 519.06 172.11 518.25 168.15 516.46 164.55 C 513.50 158.40 506.79 154.49 500.05 154.31 C 492.34 153.85 484.28 157.57 480.25 164.28 Z" />
<path fill="#023184" opacity="1.00" d=" M 662.86 147.13 C 670.75 137.07 684.51 131.35 697.08 135.05 C 696.97 143.09 697.01 151.12 697.12 159.16 C 691.56 159.05 685.85 158.12 680.41 159.65 C 673.80 162.16 669.08 168.29 667.05 174.92 C 665.56 179.44 665.72 184.26 665.74 188.95 C 665.74 207.01 665.72 225.07 665.73 243.13 C 657.07 243.14 648.42 243.13 639.76 243.13 C 639.50 207.44 641.00 171.73 639.20 136.06 C 646.97 136.08 654.73 136.05 662.50 136.08 C 662.61 139.76 662.74 143.44 662.86 147.13 Z" />
<path fill="#023184" opacity="1.00" d=" M 747.57 134.79 C 761.35 132.42 776.15 135.20 787.61 143.38 C 799.29 151.30 806.33 164.78 808.21 178.57 C 809.77 192.24 808.56 206.68 801.94 218.97 C 795.07 231.75 782.34 240.99 768.23 244.11 C 752.13 247.79 734.13 244.34 721.49 233.43 C 709.53 222.91 703.67 206.66 703.96 190.95 C 703.65 175.85 708.46 160.12 719.28 149.26 C 726.74 141.46 736.91 136.37 747.57 134.79 M 750.54 155.73 C 744.40 157.29 739.05 161.41 735.76 166.79 C 729.95 176.05 728.73 187.56 730.34 198.20 C 731.84 209.15 738.62 220.00 749.46 223.63 C 758.65 226.49 769.20 222.48 774.73 214.74 C 785.59 200.04 785.35 178.07 774.48 163.47 C 768.75 156.74 759.14 153.49 750.54 155.73 Z" />
<path fill="#023184" opacity="1.00" d=" M 945.58 144.37 C 960.14 136.11 977.43 131.83 994.08 134.92 C 1003.91 136.42 1013.30 141.83 1018.55 150.43 C 1024.56 160.49 1025.38 172.57 1025.10 184.02 C 1025.30 203.73 1024.06 223.58 1027.18 243.13 C 1019.15 243.09 1011.12 243.25 1003.09 243.20 C 1002.88 240.35 1002.69 237.51 1002.51 234.66 C 993.66 242.34 981.80 246.73 970.04 245.36 C 959.85 244.66 949.74 239.48 944.39 230.60 C 935.27 216.38 938.91 195.54 952.51 185.44 C 965.72 174.54 983.66 173.88 999.91 172.03 C 998.72 165.87 996.30 158.63 989.81 156.31 C 976.98 152.50 962.86 156.58 952.44 164.53 C 950.07 157.84 947.84 151.10 945.58 144.37 M 969.49 200.55 C 962.17 206.91 964.08 221.28 973.77 224.21 C 982.59 226.09 992.82 222.38 997.45 214.41 C 1001.16 207.87 999.99 200.03 999.71 192.86 C 989.37 193.02 977.55 193.04 969.49 200.55 Z" />
<path fill="#023184" opacity="1.00" d=" M 1069.73 146.00 C 1082.99 132.62 1105.81 129.85 1121.54 140.45 C 1130.86 146.49 1136.08 157.19 1137.89 167.89 C 1139.06 173.85 1138.66 179.94 1138.77 185.97 C 1138.83 205.00 1138.60 224.03 1139.00 243.06 C 1130.39 243.13 1121.79 243.15 1113.18 243.13 C 1113.26 226.10 1113.40 209.08 1113.28 192.05 C 1113.19 182.44 1114.22 171.92 1108.60 163.50 C 1104.56 157.12 1096.04 155.17 1089.05 156.94 C 1079.39 159.49 1071.94 168.93 1071.96 178.96 C 1071.88 200.32 1071.93 221.69 1072.00 243.06 C 1063.42 243.15 1054.85 243.15 1046.27 243.06 C 1046.30 222.70 1046.39 202.34 1046.36 181.98 C 1046.25 167.27 1046.80 152.52 1045.20 137.86 C 1045.69 137.50 1046.66 136.78 1047.15 136.42 C 1054.27 135.73 1061.45 136.20 1068.60 136.08 C 1068.97 139.39 1069.36 142.69 1069.73 146.00 Z" />
</g>
</svg>
